<svg xmlns="http://www.w3.org/2000/svg" width="851" height="747" fill="none" viewBox="0 0 851 747"><g clip-path="url(#clip0)"><path fill="#464159" d="M474.5 746.054C644.88 746.054 783 721.654 783 691.554C783 661.455 644.88 637.054 474.5 637.054C304.12 637.054 166 661.455 166 691.554C166 721.654 304.12 746.054 474.5 746.054Z"/><path fill="#413C69" d="M269.193 338.68C288.802 309.532 297.316 274.322 293.192 239.435C289.067 204.548 272.577 172.294 246.711 148.522C220.846 124.751 187.318 111.036 152.207 109.864C117.097 108.692 82.729 120.141 55.3361 142.135C27.9431 164.13 9.33906 195.212 2.89756 229.746C-3.54394 264.281 2.60367 299.98 20.2256 330.371C37.8475 360.761 65.7767 383.83 98.9486 395.395C132.121 406.959 168.338 406.253 201.034 393.405C203.154 400.971 207.117 407.893 212.568 413.552C218.019 419.211 224.788 423.43 232.27 425.831C239.751 428.232 247.711 428.74 255.437 427.311C263.163 425.881 270.414 422.558 276.541 417.638C282.668 412.719 287.479 406.357 290.544 399.123C293.609 391.888 294.833 384.006 294.104 376.183C293.376 368.359 290.72 360.838 286.372 354.294C282.025 347.749 276.122 342.384 269.193 338.68V338.68Z"/><path fill="#fff" d="M234.527 227.304H59.7815V241.1H234.527V227.304Z"/><path fill="#fff" d="M234.527 250.297H59.7815V264.092H234.527V250.297Z"/><path fill="#fff" d="M234.527 273.29H59.7815V287.085H234.527V273.29Z"/><path fill="#413C69" d="M581.807 229.406C562.198 200.258 553.684 165.048 557.808 130.161C561.933 95.2741 578.423 63.0203 604.289 39.2487C630.154 15.4772 663.682 1.76189 698.793 0.590111C733.903 -0.58167 768.271 10.8676 795.664 32.8617C823.057 54.8559 841.661 85.9384 848.102 120.473C854.544 155.007 848.396 190.706 830.774 221.097C813.153 251.487 785.223 274.557 752.051 286.121C718.879 297.686 682.662 296.98 649.965 284.131C647.846 291.697 643.883 298.619 638.432 304.278C632.981 309.937 626.212 314.156 618.73 316.557C611.249 318.958 603.289 319.467 595.563 318.037C587.837 316.607 580.586 313.284 574.459 308.365C568.332 303.445 563.521 297.084 560.456 289.849C557.391 282.614 556.167 274.732 556.895 266.909C557.624 259.086 560.28 251.565 564.628 245.02C568.975 238.475 574.878 233.11 581.807 229.406V229.406Z"/><path fill="#fff" d="M616.473 131.826L791.219 131.826V118.03L616.473 118.03V131.826Z"/><path fill="#fff" d="M616.473 154.819L791.219 154.819V141.023L616.473 141.023V154.819Z"/><path fill="#fff" d="M616.473 177.812L791.219 177.812V164.016L616.473 164.016V177.812Z"/><path fill="#413C69" d="M326.713 631.491C315.765 615.218 311.012 595.561 313.315 576.084C315.618 556.607 324.824 538.6 339.264 525.329C353.705 512.058 372.423 504.4 392.025 503.746C411.626 503.092 430.813 509.484 446.106 521.763C461.4 534.042 471.786 551.395 475.382 570.675C478.978 589.955 475.546 609.886 465.708 626.852C455.87 643.819 440.278 656.698 421.758 663.154C403.239 669.611 383.019 669.217 364.765 662.044C363.582 666.268 361.369 670.132 358.326 673.291C355.283 676.451 351.504 678.806 347.327 680.146C343.15 681.487 338.706 681.771 334.393 680.973C330.079 680.174 326.031 678.319 322.611 675.573C319.19 672.826 316.504 669.275 314.793 665.236C313.082 661.197 312.399 656.796 312.805 652.429C313.212 648.061 314.695 643.862 317.122 640.208C319.549 636.554 322.844 633.559 326.713 631.491V631.491Z"/><path fill="#fff" d="M362.551 593.331C367.793 593.331 372.042 589.082 372.042 583.84C372.042 578.599 367.793 574.349 362.551 574.349C357.309 574.349 353.06 578.599 353.06 583.84C353.06 589.082 357.309 593.331 362.551 593.331Z"/><path fill="#fff" d="M394.932 593.331C400.173 593.331 404.423 589.082 404.423 583.84C404.423 578.599 400.173 574.349 394.932 574.349C389.69 574.349 385.441 578.599 385.441 583.84C385.441 589.082 389.69 593.331 394.932 593.331Z"/><path fill="#fff" d="M427.312 593.331C432.554 593.331 436.803 589.082 436.803 583.84C436.803 578.599 432.554 574.349 427.312 574.349C422.071 574.349 417.822 578.599 417.822 583.84C417.822 589.082 422.071 593.331 427.312 593.331Z"/><path fill="#2F2E41" d="M404.436 289.408C404.436 289.408 446.783 290.559 453.776 293.104C460.77 295.648 463.897 313.843 463.897 313.843L431.018 324.178L406.426 322.785L387.918 324.092L398.253 297.027L404.436 289.408Z"/><path fill="#9F616A" d="M406.263 275.513C406.263 275.513 409.049 286.273 402.865 293.893C396.682 301.512 429.448 328.662 429.448 328.662L446.733 325.691C446.733 325.691 442.923 292.627 448.041 284.255C453.158 275.882 406.263 275.513 406.263 275.513Z"/><path fill="#000" d="M406.263 275.513C406.263 275.513 409.049 286.273 402.865 293.893C396.682 301.512 429.448 328.662 429.448 328.662L446.733 325.691C446.733 325.691 442.923 292.627 448.041 284.255C453.158 275.882 406.263 275.513 406.263 275.513Z" opacity=".1"/><path fill="#9F616A" d="M521.22 590.132L483.081 640.709L509.109 655.905L544.931 597.296L521.22 590.132Z"/><path fill="#2F2E41" d="M494.468 641.562C494.468 641.562 480.423 625.243 481.049 628.882C481.674 632.521 471.056 663.382 480.935 666.367C490.814 669.352 575.536 677.27 576.701 667.703C577.867 658.136 551.427 651.441 551.427 651.441C551.427 651.441 535.719 636.345 532.237 637.88C528.754 639.416 494.468 641.562 494.468 641.562Z"/><path fill="#9F616A" d="M512.663 638.435L543.126 690.333L566.125 677.014L535.407 634.525L512.663 638.435Z"/><path fill="#2F2E41" d="M560.752 514.963L551.711 527.757C551.711 527.757 508.611 587.616 513.189 592.449C517.766 597.282 536.828 615.549 546.523 612.009C556.217 608.469 590.66 547.288 590.66 547.288L581.676 511.367L560.752 514.963Z"/><path fill="#2F2E41" d="M375.09 502.853C375.09 502.853 384.742 520.863 409.206 526.961C433.67 533.059 459.228 545.526 460.138 545.369C461.048 545.213 463.621 543.834 464.246 547.473C464.872 551.112 471.581 557.452 471.581 557.452C471.581 557.452 498.604 649.281 508.924 649.38C519.244 649.48 540.453 642.088 540.894 639.202C541.334 636.317 509.294 542.541 508.981 540.721L505.228 518.887C505.228 518.887 547.603 525.653 551.555 526.847C555.506 528.041 590.66 547.288 590.66 547.288C590.66 547.288 626.496 521.459 592.977 495.375C559.458 469.291 501.845 450.158 501.845 450.158L481.176 444.344L463.163 443.268L460.51 433.098L417.848 435.559L373.327 454.451L375.09 502.853Z"/><path fill="#9F616A" d="M431.395 296.932C449.748 296.932 464.626 282.053 464.626 263.7C464.626 245.347 449.748 230.469 431.395 230.469C413.042 230.469 398.163 245.347 398.163 263.7C398.163 282.053 413.042 296.932 431.395 296.932Z"/><path fill="#D0CDE1" d="M401.33 290.41L405.327 289.723C405.327 289.723 412.546 317.518 434.878 322.109C434.878 322.109 445.897 308.909 445.426 306.682C444.956 304.454 454.153 292.571 459.043 299.223C463.933 305.876 457.849 423.064 461.957 425.168C466.066 427.271 474.879 429.503 467.786 437.279C460.692 445.054 432.518 455.517 426.278 451.906C420.038 448.296 407.287 417.705 401.771 407.413C396.256 397.122 387.428 362.11 387.428 362.11C387.428 362.11 376.156 323.773 383.092 315.087C390.029 306.402 401.33 290.41 401.33 290.41Z"/><path fill="#2F2E41" d="M433.135 434.681C432.392 442.844 431.12 450.95 429.328 458.949C427.698 465.457 425.801 469.386 423.635 469.219C418.109 468.806 415.598 476.91 414.303 486.253C412.919 496.166 412.919 507.474 412.16 511.47C411.155 516.75 404.725 520.78 391.877 519.597C384.225 518.726 376.715 516.884 369.529 514.116C352.181 507.809 352.695 456.66 355.597 418.707C357.372 395.443 360.04 377.125 360.04 377.125C360.04 377.125 354.771 361.408 353.086 350.635C352.75 348.67 352.582 346.679 352.583 344.686C352.84 335.275 370.02 309.846 380.401 294.006C390.794 278.166 404.971 289.787 404.971 289.787L400.037 304.678C400.037 304.678 407.683 316.477 407.739 327.707C407.795 338.937 426.046 347.041 432.599 352.477C436.718 355.893 436.617 401.493 433.135 434.681Z"/><path fill="#2F2E41" d="M447.564 295.108C447.564 295.108 448.762 296.523 454.245 295.833C460.822 295.005 469.864 297.28 471.964 303.559C475.817 315.073 486.677 361.911 486.677 361.911C486.677 361.911 491.197 415.459 493.23 427.286C495.263 439.112 494.254 449.589 496.258 455.801C498.262 462.013 476.471 444.216 468.439 446.533C460.408 448.85 455.248 418.828 456.257 408.351C457.266 397.875 458.119 386.489 455.333 375.728C452.547 364.967 457.486 336.488 457.302 329.963C457.117 323.438 439.592 306.994 447.564 295.108Z"/><path fill="#9F616A" d="M471.078 461.534C471.078 461.534 506.264 480.729 509.631 508.051C512.999 535.373 462.569 481.597 462.569 481.597L471.078 461.534Z"/><path fill="#9F616A" d="M491.164 442.159C491.164 442.159 501.945 496.504 518.741 493.617C535.536 490.73 509.359 439.031 509.359 439.031L491.164 442.159Z"/><path fill="#2F2E41" d="M548.684 679.075C548.684 679.075 540.084 688.983 537.951 687.476C535.819 685.969 530.915 706.482 535.336 710.405C539.757 714.328 556.786 720.768 556.971 727.292C557.156 733.817 602.829 732.523 604.463 725.686C606.098 718.848 598.735 703.255 593.56 700.397C588.386 697.54 569.254 671.243 569.254 671.243C569.254 671.243 554.27 673.432 548.684 679.075Z"/><path fill="#000" d="M465.473 494.77C457.313 489.01 434.53 487.582 414.303 486.253C405.428 485.684 397.045 485.126 390.604 484.222C384.397 483.362 378.816 477.691 373.86 469.241C366.347 456.437 360.274 437.237 355.597 418.707C357.372 395.443 360.04 377.125 360.04 377.125C360.04 377.125 354.771 361.408 353.086 350.635C354.274 348.982 355.804 347.603 357.573 346.594C379.028 337.385 399.512 428.016 402.113 442.238C402.158 442.472 402.191 442.696 402.225 442.885C403.486 450.208 417.116 456.471 429.328 458.949C436.852 460.478 443.851 460.579 447.077 458.591C455.55 453.39 481.604 474.208 483.58 474.8C485.555 475.403 477.194 503.064 465.473 494.77Z" opacity=".1"/><path fill="#2F2E41" d="M357.577 341.015C357.577 341.015 341.983 348.379 348.835 382.793C355.686 417.208 369.489 475.716 390.598 478.645C411.708 481.573 453.741 480.905 465.469 489.192C477.196 497.479 485.554 469.817 483.579 469.22C481.603 468.623 455.546 447.812 447.074 453.015C438.602 458.217 404.259 449.134 402.226 437.307C400.193 425.481 379.382 331.648 357.577 341.015Z"/><path fill="#2F2E41" d="M469.946 324.512L487.084 364.279C487.084 364.279 488.809 363.418 490.814 369.63C492.818 375.842 493.756 381.3 497.267 385.38C500.778 389.46 516.401 447.656 516.87 450.385C517.339 453.114 495.293 462.523 490.367 454.94C485.441 447.357 469.946 324.512 469.946 324.512Z"/><path fill="#2F2E41" d="M412.488 263.237C413.762 262.897 413.949 261.206 413.992 259.889C414.22 252.834 418.469 245.594 425.222 243.54C427.814 242.829 430.527 242.68 433.181 243.102C436.969 243.607 440.627 244.827 443.959 246.698C445.718 247.687 447.444 248.878 449.439 249.18C450.756 249.379 456.462 251.038 457.774 251.272C460.659 251.785 463.34 254.366 466.108 253.405C468.756 252.487 469.342 249.058 469.406 246.255C469.552 239.871 464.705 231.034 460.436 226.284C457.197 222.68 452.319 221.016 447.55 220.151C441.98 219.256 436.335 218.913 430.698 219.126C423.066 219.262 415.224 219.851 408.343 223.153C401.461 226.455 395.681 233.026 395.352 240.652C395.283 242.24 395.447 243.835 395.313 245.419C394.987 249.284 392.935 252.775 391.972 256.532C391.284 259.289 391.181 262.159 391.67 264.958C392.16 267.757 393.23 270.423 394.812 272.783C397.366 276.541 401.38 279.94 401.232 284.481L406.77 278.744C407.597 278.113 408.182 277.217 408.428 276.206C408.674 275.195 408.566 274.13 408.122 273.189L406.162 265.544C405.658 264.179 405.599 262.69 405.992 261.289C408.093 256.097 410.365 263.804 412.488 263.237Z"/><path fill="#3F3D56" d="M664.146 645.576C663.917 645.201 658.506 636.166 656.63 617.404C654.909 600.191 656.016 571.177 671.062 530.706C699.568 454.035 664.493 392.172 664.135 391.556L665.865 390.552C665.956 390.708 675.007 406.481 680.354 431.596C687.418 464.894 684.846 499.515 672.938 531.403C644.48 607.943 665.637 644.176 665.854 644.534L664.146 645.576Z"/><path fill="#F67280" d="M653 387.054C660.18 387.054 666 381.234 666 374.054C666 366.874 660.18 361.054 653 361.054C645.82 361.054 640 366.874 640 374.054C640 381.234 645.82 387.054 653 387.054Z"/><path fill="#FFD369" d="M694 435.054C701.18 435.054 707 429.234 707 422.054C707 414.874 701.18 409.054 694 409.054C686.82 409.054 681 414.874 681 422.054C681 429.234 686.82 435.054 694 435.054Z"/><path fill="#F67280" d="M666 467.054C673.18 467.054 679 461.234 679 454.054C679 446.874 673.18 441.054 666 441.054C658.82 441.054 653 446.874 653 454.054C653 461.234 658.82 467.054 666 467.054Z"/><path fill="#F67280" d="M700 494.054C707.18 494.054 713 488.234 713 481.054C713 473.874 707.18 468.054 700 468.054C692.82 468.054 687 473.874 687 481.054C687 488.234 692.82 494.054 700 494.054Z"/><path fill="#FFD369" d="M656 536.054C663.18 536.054 669 530.234 669 523.054C669 515.874 663.18 510.054 656 510.054C648.82 510.054 643 515.874 643 523.054C643 530.234 648.82 536.054 656 536.054Z"/><path fill="#3F3D56" d="M672 646.054C672 646.054 659 614.054 698 590.054L672 646.054Z"/><path fill="#3F3D56" d="M656.012 645.474C656.012 645.474 650.096 611.444 604.304 611.736L656.012 645.474Z"/></g><defs><clipPath id="clip0"><rect width="851" height="746.054" fill="#fff"/></clipPath></defs></svg>