<svg width="24" height="22" viewBox="0 0 24 22" fill="none" xmlns="http://www.w3.org/2000/svg">
<path d="M17.4 0C15.312 0 13.308 0.971117 12 2.50572C10.692 0.971117 8.688 0 6.6 0C2.904 0 0 2.90136 0 6.594C0 11.1259 4.08 14.8185 10.26 20.4294L12 22L13.74 20.4174C19.92 14.8185 24 11.1259 24 6.594C24 2.90136 21.096 0 17.4 0ZM12.12 18.643L12 18.7629L11.88 18.643C6.168 13.4757 2.4 10.0589 2.4 6.594C2.4 4.19618 4.2 2.39782 6.6 2.39782C8.448 2.39782 10.248 3.58474 10.884 5.22725H13.128C13.752 3.58474 15.552 2.39782 17.4 2.39782C19.8 2.39782 21.6 4.19618 21.6 6.594C21.6 10.0589 17.832 13.4757 12.12 18.643Z" fill="#EB4D55"/>
</svg>
