<svg width="61" height="51" viewBox="0 0 61 51" fill="none" xmlns="http://www.w3.org/2000/svg">
<path d="M58.4583 22.9755L45.75 22.95C44.3521 22.95 43.2083 24.0975 43.2083 25.5V48.45C43.2083 49.8525 44.3521 51 45.75 51H58.4583C59.8563 51 61 49.8525 61 48.45V25.5C61 24.0975 59.8563 22.9755 58.4583 22.9755ZM58.4583 45.9H45.75V28.05H58.4583V45.9ZM50.8333 0H5.08333C2.26208 0 0 2.2695 0 5.1V35.7C0 38.505 2.26208 40.8 5.08333 40.8H22.875V45.9H17.7917V51H38.125V45.9H33.0417V40.8H38.125V35.7H5.08333V5.1H50.8333V17.85H55.9167V5.1C55.9167 2.2695 53.6292 0 50.8333 0ZM30.4238 17.85L27.9583 10.2L25.4929 17.85H17.7917L24.0696 22.338L21.6804 29.7585L27.9583 25.1685L34.2363 29.7585L31.8471 22.338L38.125 17.85H30.4238Z" fill="#F66767"/>
</svg>
